<svg width="150" height="90" viewBox="0 0 150 90" fill="none" xmlns="http://www.w3.org/2000/svg">
<rect x="0.5" y="0.5" width="149" height="89" stroke="#DEDEDE"/>
<g clip-path="url(#clip0_526_1236)">
<path d="M52.4804 37.7234C52.6156 37.0755 53.2552 36.55 53.9068 36.55H57.449L54.5032 50.6321H50.961C50.3089 50.6321 49.8898 50.1071 50.0255 49.4587L52.4804 37.7234ZM64.2881 37.7234C64.4238 37.0755 65.0629 36.55 65.7144 36.55H69.2567L66.3109 50.6321H62.7686C62.1166 50.6321 61.6974 50.1071 61.8332 49.4587L64.2881 37.7234ZM87.9039 37.7234C88.0391 37.0755 88.6776 36.55 89.3302 36.55H92.8725L89.9267 50.6321H86.3839C85.7318 50.6321 85.3132 50.1071 85.449 49.4587L87.9039 37.7234ZM70.4376 36.55H73.9798C74.6319 36.55 75.051 37.075 74.9153 37.7234L72.4604 49.4587C72.3252 50.1071 71.6861 50.6321 71.034 50.6321H67.4918L70.4376 36.55ZM94.0534 36.55H97.5956C98.2477 36.55 98.6668 37.075 98.5311 37.7234L96.0757 49.4587C95.9405 50.1071 95.3019 50.6321 94.6498 50.6321H91.1071L94.0534 36.55ZM76.0962 37.7234C76.2314 37.0755 76.87 36.55 77.5221 36.55H81.0648L78.1185 50.6321H74.5763C73.9242 50.6321 73.5051 50.1071 73.6413 49.4587L76.0957 37.7234H76.0962ZM82.2452 36.55H85.788C86.4401 36.55 86.8587 37.075 86.723 37.7234L83.0408 55.3266C82.9046 55.9745 82.266 56.5 81.614 56.5H78.0712L82.2452 36.55ZM56.6659 45.938H61.3891L60.6528 49.4587C60.517 50.1071 59.878 50.6321 59.2264 50.6321H55.6836L56.6654 45.9386L56.6659 45.938ZM73.1504 51.806H77.8731L76.8913 56.5H73.3491C72.6965 56.5 72.2779 55.975 72.4136 55.3266L73.1504 51.806ZM85.9705 52.8974L85.3725 55.7566C85.3465 55.8794 85.306 55.913 85.1822 55.913H84.9102C84.7865 55.913 84.7594 55.8794 84.7854 55.7566L85.3834 52.8974C85.4094 52.7751 85.45 52.741 85.5738 52.741H85.8457C85.9695 52.741 85.9965 52.7751 85.9705 52.8974ZM86.7568 54.8263H86.7011C86.6418 54.8263 86.621 54.8431 86.6091 54.9024L86.4302 55.7566C86.4042 55.8794 86.3631 55.913 86.2399 55.913H85.9674C85.8442 55.913 85.8171 55.8794 85.8426 55.7566L86.4406 52.8974C86.4666 52.7751 86.5082 52.741 86.6314 52.741H87.193C87.8399 52.741 88.0848 52.9736 87.9652 53.5442L87.8654 54.0225C87.7458 54.5937 87.4036 54.8263 86.7568 54.8263ZM86.9211 53.4093L86.7651 54.158C86.7521 54.2173 86.7656 54.2341 86.8254 54.2341H86.9148C87.1228 54.2341 87.2346 54.1496 87.2799 53.9338L87.3423 53.6335C87.3875 53.4182 87.3116 53.3332 87.1031 53.3332H87.0136C86.9544 53.3332 86.9336 53.35 86.9211 53.4093ZM88.8648 53.8703L89.3068 54.3611C89.5388 54.6147 89.571 54.767 89.5117 55.0505L89.4961 55.1266C89.3843 55.6595 89.1181 55.9556 88.5008 55.9556C87.8841 55.9556 87.7318 55.7062 87.8742 55.0247L87.8919 54.9407C87.9179 54.8179 87.959 54.7838 88.0822 54.7838H88.3714C88.4951 54.7838 88.5222 54.8179 88.4962 54.9402L88.4572 55.1266C88.4218 55.2956 88.4759 55.3634 88.6246 55.3634C88.7738 55.3634 88.855 55.3004 88.8872 55.1481L88.9038 55.0673C88.9288 54.9486 88.9153 54.8898 88.7874 54.7502L88.3714 54.2976C88.1384 54.0483 88.1088 53.9039 88.168 53.6204L88.1873 53.528C88.2991 52.9951 88.5653 52.6985 89.182 52.6985C89.7993 52.6985 89.9516 52.9484 89.8092 53.6293L89.7915 53.7138C89.7655 53.8367 89.7244 53.8703 89.6012 53.8703H89.3115C89.1883 53.8703 89.1612 53.8367 89.1867 53.7138L89.2257 53.528C89.2611 53.3584 89.2075 53.2912 89.0583 53.2912C88.9096 53.2912 88.8279 53.3542 88.7962 53.5064L88.7811 53.5784C88.7551 53.7012 88.7686 53.7605 88.8648 53.8703ZM91.3567 52.8974C91.3827 52.7751 91.4232 52.741 91.547 52.741H91.819C91.9427 52.741 91.9698 52.7751 91.9438 52.8974L91.4986 55.0253C91.3562 55.7062 91.0998 55.9556 90.4826 55.9556C89.8658 55.9556 89.7135 55.7062 89.856 55.0247L90.3011 52.8974C90.3271 52.7751 90.3682 52.741 90.4914 52.741H90.7639C90.8871 52.741 90.9142 52.7751 90.8887 52.8974L90.4222 55.1266C90.3869 55.2956 90.4451 55.3634 90.6068 55.3634C90.7639 55.3634 90.8549 55.2956 90.8902 55.1266L91.3567 52.8974ZM93.1278 54.6189C93.1294 54.653 93.1403 54.6609 93.1616 54.6609C93.1824 54.6609 93.1975 54.653 93.2131 54.6189L93.9484 52.8512C93.9842 52.762 94.0269 52.741 94.1335 52.741H94.5464C94.6696 52.741 94.6966 52.7751 94.6712 52.8974L94.0732 55.7566C94.0472 55.8794 94.0056 55.913 93.8823 55.913H93.6868C93.5636 55.913 93.536 55.8794 93.562 55.7566L93.849 54.3863C93.8568 54.3485 93.8501 54.3396 93.8246 54.3396C93.8074 54.3396 93.7882 54.3485 93.7778 54.3779L93.184 55.7739C93.1413 55.8752 93.0867 55.913 92.9635 55.913H92.848C92.7201 55.913 92.6816 55.8752 92.6816 55.7739L92.6671 54.3774C92.6645 54.348 92.6577 54.3396 92.6364 54.3396C92.6109 54.3396 92.6005 54.3485 92.5927 54.3863L92.3062 55.7566C92.2802 55.8794 92.2396 55.913 92.1159 55.913H91.9204C91.7966 55.913 91.7696 55.8794 91.7956 55.7566L92.3936 52.8974C92.4196 52.7751 92.4606 52.741 92.5839 52.741H92.9375C93.0862 52.741 93.134 52.7751 93.133 52.9232L93.1273 54.6189H93.1278ZM102 36.55C102 37.1301 101.537 37.6 100.967 37.6C100.831 37.5996 100.696 37.5721 100.57 37.5191C100.445 37.4661 100.331 37.3886 100.235 37.2911C100.139 37.1936 100.063 37.078 100.011 36.9508C99.9594 36.8236 99.9331 36.6874 99.9336 36.55C99.9336 35.9699 100.396 35.5 100.967 35.5C101.537 35.5 102 35.9699 102 36.55Z" fill="#1D2633"/>
</g>
<defs>
<clipPath id="clip0_526_1236">
<rect width="52" height="21" fill="white" transform="translate(50 35.5)"/>
</clipPath>
</defs>
</svg>
