<svg width="150" height="91" viewBox="0 0 150 91" fill="none" xmlns="http://www.w3.org/2000/svg">
<rect x="0.5" y="0.5" width="149" height="90" stroke="#DEDEDE"/>
<g clip-path="url(#clip0_526_1232)">
<path fill-rule="evenodd" clip-rule="evenodd" d="M38.8409 51.2C38.1477 51.2 37.4829 50.9234 36.9928 50.4312C36.5026 49.9389 36.2273 49.2712 36.2273 48.575V36.5H31V48.575C31 52.9241 34.5106 56.45 38.8409 56.45H44.5909V51.2H38.8409ZM54.5227 41.75C53.9049 41.75 53.2932 41.8722 52.7224 42.1097C52.1516 42.3471 51.633 42.6952 51.1961 43.1339C50.7593 43.5727 50.4127 44.0936 50.1763 44.6668C49.9399 45.2401 49.8182 45.8545 49.8182 46.475C49.8182 47.0955 49.9399 47.7099 50.1763 48.2832C50.4127 48.8564 50.7593 49.3773 51.1961 49.8161C51.633 50.2548 52.1516 50.6029 52.7224 50.8403C53.2932 51.0778 53.9049 51.2 54.5227 51.2C55.7704 51.2 56.9671 50.7022 57.8493 49.8161C58.7316 48.93 59.2273 47.7281 59.2273 46.475C59.2273 45.2219 58.7316 44.02 57.8493 43.1339C56.9671 42.2478 55.7704 41.75 54.5227 41.75ZM44.5909 46.475C44.5909 40.9662 49.0377 36.5 54.5227 36.5C60.0077 36.5 64.4545 40.9662 64.4545 46.475C64.4545 51.9838 60.0077 56.45 54.5227 56.45C49.0377 56.45 44.5909 51.9838 44.5909 46.475ZM110.977 41.75C109.73 41.75 108.533 42.2478 107.651 43.1339C106.768 44.02 106.273 45.2219 106.273 46.475C106.273 47.7281 106.768 48.93 107.651 49.8161C108.533 50.7022 109.73 51.2 110.977 51.2C112.225 51.2 113.422 50.7022 114.304 49.8161C115.186 48.93 115.682 47.7281 115.682 46.475C115.682 45.2219 115.186 44.02 114.304 43.1339C113.422 42.2478 112.225 41.75 110.977 41.75ZM101.045 46.475C101.045 40.9662 105.492 36.5 110.977 36.5C116.462 36.5 120.909 40.9662 120.909 46.475C120.909 51.9838 116.462 56.45 110.977 56.45C105.492 56.45 101.045 51.9838 101.045 46.475ZM75.4318 36.5C69.9468 36.5 65.5 40.9662 65.5 46.475C65.5 51.9838 69.9468 56.45 75.4318 56.45H90.0682C91.0974 56.45 92.0901 56.2925 93.0237 56.0006L95.8182 57.5L98.8333 51.8279C99.5992 50.384 99.9998 48.7731 100 47.137V46.475C100 40.9662 95.5532 36.5 90.0682 36.5H75.4318ZM94.7727 46.475C94.7727 45.2219 94.2771 44.02 93.3948 43.1339C92.5125 42.2478 91.3159 41.75 90.0682 41.75H75.4318C74.814 41.75 74.2022 41.8722 73.6315 42.1097C73.0607 42.3471 72.5421 42.6952 72.1052 43.1339C71.6683 43.5727 71.3218 44.0936 71.0854 44.6668C70.849 45.2401 70.7273 45.8545 70.7273 46.475C70.7273 47.0955 70.849 47.7099 71.0854 48.2832C71.3218 48.8564 71.6683 49.3773 72.1052 49.8161C72.5421 50.2548 73.0607 50.6029 73.6315 50.8403C74.2022 51.0778 74.814 51.2 75.4318 51.2H90.0682C91.3096 51.2 92.5007 50.7073 93.3819 49.8291C94.2632 48.9509 94.7631 47.7585 94.7727 46.5117V46.475Z" fill="#1D2633"/>
<path d="M123 37.8125C123 38.1606 122.862 38.4944 122.617 38.7406C122.372 38.9867 122.04 39.125 121.693 39.125C121.346 39.125 121.014 38.9867 120.769 38.7406C120.524 38.4944 120.386 38.1606 120.386 37.8125C120.386 37.4644 120.524 37.1306 120.769 36.8844C121.014 36.6383 121.346 36.5 121.693 36.5C122.04 36.5 122.372 36.6383 122.617 36.8844C122.862 37.1306 123 37.4644 123 37.8125Z" fill="#1D2633"/>
</g>
<defs>
<clipPath id="clip0_526_1232">
<rect width="92" height="21" fill="white" transform="translate(31 36.5)"/>
</clipPath>
</defs>
</svg>
