<svg width="150" height="91" viewBox="0 0 150 91" fill="none" xmlns="http://www.w3.org/2000/svg">
<rect x="0.5" y="0.5" width="149" height="90" stroke="#DEDEDE"/>
<g clip-path="url(#clip0_526_1220)">
<path fill-rule="evenodd" clip-rule="evenodd" d="M37.7148 37.8125V57.5H32.5V37.8125H37.7148Z" fill="#283841"/>
<path fill-rule="evenodd" clip-rule="evenodd" d="M40.3223 37.8125H51.4038C55.0038 37.8125 57.9223 40.7506 57.9223 44.375C57.9223 47.9994 55.0038 50.9375 51.4038 50.9375H45.5371V57.5H40.3223V37.8125ZM45.5371 45.6875H51.4038C52.1238 45.6875 52.7075 45.0999 52.7075 44.375C52.7075 43.6501 52.1238 43.0625 51.4038 43.0625H45.5371V45.6875Z" fill="#283841"/>
<path fill-rule="evenodd" clip-rule="evenodd" d="M77.478 37.8125V47.9844C77.478 50.3402 79.3749 52.25 81.715 52.25C84.0551 52.25 85.9521 50.3402 85.9521 47.9844V37.8125H91.167V47.9844C91.167 53.2397 86.9352 57.5 81.715 57.5C76.4949 57.5 72.2632 53.2397 72.2632 47.9844V37.8125H77.478Z" fill="#283841"/>
<path fill-rule="evenodd" clip-rule="evenodd" d="M59.8779 47C59.8779 41.9259 63.9637 37.8125 69.0038 37.8125H70.3075V43.0625H69.0038C66.8437 43.0625 65.0927 44.8254 65.0927 47V47.6562C65.0927 53.0928 60.715 57.5 55.3149 57.5H54.6631V52.25H55.3149C57.835 52.25 59.8779 50.1933 59.8779 47.6562V47Z" fill="#283841"/>
<path d="M120.5 38.4687C120.5 39.5561 119.625 40.4375 118.544 40.4375C117.464 40.4375 116.589 39.5561 116.589 38.4687C116.589 37.3814 117.464 36.5 118.544 36.5C119.625 36.5 120.5 37.3814 120.5 38.4687Z" fill="#283841"/>
<path d="M96.766 57.5002L99.2545 47.0097L101.105 53.3208C102.207 57.085 107.504 57.085 108.607 53.3208L110.457 47.0097L112.945 57.5002H118.306L114.394 41.0044C113.463 37.0816 107.972 36.9364 106.838 40.8046L104.856 47.5689L102.873 40.8046C101.739 36.9364 96.2479 37.0816 95.3174 41.0044L91.4048 57.5002H96.766Z" fill="#283841"/>
</g>
<defs>
<clipPath id="clip0_526_1220">
<rect width="88" height="21" fill="white" transform="translate(32.5 36.5)"/>
</clipPath>
</defs>
</svg>
