<svg width="150" height="91" viewBox="0 0 150 91" fill="none" xmlns="http://www.w3.org/2000/svg">
<rect x="0.5" y="0.5" width="149" height="90" stroke="#DEDEDE"/>
<g clip-path="url(#clip0_526_1208)">
<path d="M30.0001 57.5C35.7992 57.5 40.5001 52.7991 40.5001 47V39.65C40.5001 38.8146 40.1682 38.0134 39.5775 37.4226C38.9867 36.8319 38.1855 36.5 37.3501 36.5H30.5251V41.1063C30.5251 42.1574 30.5891 43.2462 31.1404 44.1408C31.535 44.782 32.063 45.3307 32.6884 45.7499C33.3137 46.169 34.022 46.4487 34.765 46.57L34.9661 46.6026C35.049 46.6309 35.1209 46.6845 35.1719 46.7557C35.2228 46.827 35.2502 46.9124 35.2502 47C35.2502 47.0876 35.2228 47.173 35.1719 47.2443C35.1209 47.3155 35.049 47.3691 34.9661 47.3974L34.765 47.43C33.6794 47.6073 32.6769 48.1212 31.8991 48.899C31.1213 49.6768 30.6074 50.6793 30.4301 51.7649L30.3975 51.966C30.3692 52.0489 30.3156 52.1208 30.2444 52.1718C30.1731 52.2227 30.0877 52.2501 30.0001 52.2501C29.9125 52.2501 29.8271 52.2227 29.7558 52.1718C29.6846 52.1208 29.631 52.0489 29.6027 51.966L29.5701 51.7649C29.4488 51.0219 29.1691 50.3137 28.7499 49.6883C28.3308 49.0629 27.7821 48.535 27.1409 48.1403C26.2463 47.5891 25.1575 47.525 24.1064 47.525H19.5127C19.7873 53.08 24.3773 57.5 30.0001 57.5Z" fill="#0E1534"/>
<path d="M19.5 46.475H24.1063C25.1574 46.475 26.2462 46.4109 27.1408 45.8597C27.8402 45.4288 28.4288 44.8402 28.8597 44.1408C29.4109 43.2462 29.475 42.1574 29.475 41.1063V36.5H22.65C21.8146 36.5 21.0134 36.8319 20.4226 37.4226C19.8319 38.0134 19.5 38.8146 19.5 39.65V46.475ZM43.8889 37.55C43.8889 37.8285 43.7782 38.0955 43.5813 38.2925C43.3844 38.4894 43.1174 38.6 42.8389 38.6C42.5604 38.6 42.2933 38.4894 42.0964 38.2925C41.8995 38.0955 41.7889 37.8285 41.7889 37.55C41.7889 37.2715 41.8995 37.0045 42.0964 36.8075C42.2933 36.6106 42.5604 36.5 42.8389 36.5C43.1174 36.5 43.3844 36.6106 43.5813 36.8075C43.7782 37.0045 43.8889 37.2715 43.8889 37.55ZM130.648 42.8546C133.584 42.8546 135 44.9047 135 47.2793V51.7392H131.928V47.8085C131.928 46.7323 131.536 45.8439 130.409 45.8439C129.283 45.8439 128.908 46.7323 128.908 47.8085V51.7386H125.836V47.8085C125.836 46.7323 125.461 45.8439 124.334 45.8439C123.208 45.8439 122.815 46.7323 122.815 47.8085V51.7386H119.744V47.2788C119.744 44.9042 121.16 42.8541 124.095 42.8541C125.7 42.8541 126.86 43.4862 127.389 44.5283C127.952 43.4862 129.181 42.8535 130.648 42.8535V42.8546ZM114.224 49.0055C115.214 49.0055 115.641 48.0999 115.641 47.0231V43.1958H118.712V47.399C118.712 49.9106 117.244 51.9954 114.224 51.9954C111.203 51.9954 109.736 49.9111 109.736 47.399V43.1958H112.808V47.0231C112.808 48.0993 113.234 49.0055 114.224 49.0055ZM105.219 52.0122C103.291 52.0122 102.045 51.3459 101.311 50.0476L103.53 48.8002C103.837 49.3468 104.297 49.6203 105.066 49.6203C105.697 49.6203 105.987 49.3982 105.987 49.1247C105.987 48.0826 101.482 49.142 101.482 45.8277C101.482 44.2212 102.847 42.9228 105.168 42.9228C107.199 42.9228 108.308 43.9135 108.803 44.8706L106.584 46.1348C106.397 45.6224 105.816 45.3147 105.236 45.3147C104.793 45.3147 104.554 45.5027 104.554 45.7589C104.554 46.8183 109.059 45.8445 109.059 49.0564C109.059 50.8503 107.301 52.0122 105.219 52.0122ZM94.4873 55.6688H91.4155V47.4504C91.4155 44.8359 93.378 42.9396 96.1085 42.9396C98.7708 42.9396 100.801 44.973 100.801 47.4504C100.801 50.1841 98.9923 51.9954 96.2791 51.9954C95.6476 51.9954 95.0165 51.8074 94.4873 51.5166V55.6688ZM96.1085 49.1079C97.0814 49.1079 97.7297 48.3561 97.7297 47.4672C97.7297 46.5621 97.0814 45.8272 96.1085 45.8272C95.1357 45.8272 94.4873 46.5622 94.4873 47.4678C94.4873 48.3561 95.1357 49.1079 96.1085 49.1079ZM88.3385 42.2907C87.3316 42.2907 86.4958 41.4534 86.4958 40.4454C86.4958 39.4374 87.3316 38.6 88.3385 38.6C89.3455 38.6 90.1818 39.4374 90.1818 40.4454C90.1818 41.4534 89.3455 42.2907 88.3385 42.2907ZM86.8029 43.1958H89.8747V51.7392H86.8029V43.1958ZM80.9092 51.9954C78.247 51.9954 76.2163 49.9452 76.2163 47.4504C76.2163 44.973 78.247 42.9228 80.9092 42.9228C83.5715 42.9228 85.6022 44.973 85.6022 47.4504C85.6022 49.9452 83.5715 51.9954 80.9092 51.9954ZM80.9092 49.1079C81.8821 49.1079 82.5304 48.3561 82.5304 47.4672C82.5304 46.5621 81.8821 45.8103 80.9092 45.8103C79.9364 45.8103 79.288 46.5621 79.288 47.4672C79.288 48.3561 79.9364 49.1079 80.9092 49.1079ZM70.4161 55.925C68.3003 55.925 66.7642 54.9852 65.9793 53.3105L68.5219 51.9439C68.7949 52.5251 69.3067 53.1231 70.3646 53.1231C71.4745 53.1231 72.2079 52.4222 72.2935 51.1921C71.884 51.5512 71.2351 51.8242 70.2628 51.8242C67.8903 51.8242 65.9788 49.9962 65.9788 47.4331C65.9788 44.9562 68.01 42.9396 70.6723 42.9396C73.4028 42.9396 75.3652 44.8365 75.3652 47.4504V50.8335C75.3652 53.909 73.2316 55.925 70.4161 55.925ZM70.6208 48.9373C71.5422 48.9373 72.242 48.3046 72.242 47.3649C72.242 46.4424 71.5427 45.8272 70.6208 45.8272C69.7162 45.8272 68.9996 46.4424 68.9996 47.3654C68.9996 48.3051 69.7162 48.9367 70.6208 48.9367V48.9373ZM60.7687 51.9954C58.1064 51.9954 56.0752 49.9452 56.0752 47.4504C56.0752 44.973 58.1064 42.9228 60.7687 42.9228C63.4304 42.9228 65.4616 44.973 65.4616 47.4504C65.4616 49.9452 63.431 51.9954 60.7687 51.9954ZM60.7687 49.1079C61.7415 49.1079 62.3899 48.3561 62.3899 47.4672C62.3899 46.5621 61.7415 45.8103 60.7687 45.8103C59.7958 45.8103 59.1475 46.5621 59.1475 47.4672C59.1475 48.3561 59.7958 49.1079 60.7687 49.1079ZM50.4818 40.2065V48.8343H55.5675V51.7392H50.055C48.1099 51.7392 47.325 50.7138 47.325 49.0905V40.2065H50.4818Z" fill="#0E1534"/>
</g>
<defs>
<clipPath id="clip0_526_1208">
<rect width="115.5" height="21" fill="white" transform="translate(19.5 36.5)"/>
</clipPath>
</defs>
</svg>
