<svg width="150" height="91" viewBox="0 0 150 91" fill="none" xmlns="http://www.w3.org/2000/svg">
<rect x="0.5" y="0.5" width="149" height="90" stroke="#DEDEDE"/>
<g clip-path="url(#clip0_526_1217)">
<path d="M52.4804 38.7234C52.6156 38.0755 53.2552 37.55 53.9068 37.55H57.449L54.5032 51.6321H50.961C50.3089 51.6321 49.8898 51.1071 50.0255 50.4587L52.4804 38.7234ZM64.2881 38.7234C64.4238 38.0755 65.0629 37.55 65.7144 37.55H69.2567L66.3109 51.6321H62.7686C62.1166 51.6321 61.6974 51.1071 61.8332 50.4587L64.2881 38.7234ZM87.9039 38.7234C88.0391 38.0755 88.6776 37.55 89.3302 37.55H92.8725L89.9267 51.6321H86.3839C85.7318 51.6321 85.3132 51.1071 85.449 50.4587L87.9039 38.7234ZM70.4376 37.55H73.9798C74.6319 37.55 75.051 38.075 74.9153 38.7234L72.4604 50.4587C72.3252 51.1071 71.6861 51.6321 71.034 51.6321H67.4918L70.4376 37.55ZM94.0534 37.55H97.5956C98.2477 37.55 98.6668 38.075 98.5311 38.7234L96.0757 50.4587C95.9405 51.1071 95.3019 51.6321 94.6498 51.6321H91.1071L94.0534 37.55ZM76.0962 38.7234C76.2314 38.0755 76.87 37.55 77.5221 37.55H81.0648L78.1185 51.6321H74.5763C73.9242 51.6321 73.5051 51.1071 73.6413 50.4587L76.0957 38.7234H76.0962ZM82.2452 37.55H85.788C86.4401 37.55 86.8587 38.075 86.723 38.7234L83.0408 56.3266C82.9046 56.9745 82.266 57.5 81.614 57.5H78.0712L82.2452 37.55ZM56.6659 46.938H61.3891L60.6528 50.4587C60.517 51.1071 59.878 51.6321 59.2264 51.6321H55.6836L56.6654 46.9386L56.6659 46.938ZM73.1504 52.806H77.8731L76.8913 57.5H73.3491C72.6965 57.5 72.2779 56.975 72.4136 56.3266L73.1504 52.806ZM85.9705 53.8974L85.3725 56.7566C85.3465 56.8794 85.306 56.913 85.1822 56.913H84.9102C84.7865 56.913 84.7594 56.8794 84.7854 56.7566L85.3834 53.8974C85.4094 53.7751 85.45 53.741 85.5738 53.741H85.8457C85.9695 53.741 85.9965 53.7751 85.9705 53.8974ZM86.7568 55.8263H86.7011C86.6418 55.8263 86.621 55.8431 86.6091 55.9024L86.4302 56.7566C86.4042 56.8794 86.3631 56.913 86.2399 56.913H85.9674C85.8442 56.913 85.8171 56.8794 85.8426 56.7566L86.4406 53.8974C86.4666 53.7751 86.5082 53.741 86.6314 53.741H87.193C87.8399 53.741 88.0848 53.9736 87.9652 54.5442L87.8654 55.0225C87.7458 55.5937 87.4036 55.8263 86.7568 55.8263ZM86.9211 54.4093L86.7651 55.158C86.7521 55.2173 86.7656 55.2341 86.8254 55.2341H86.9148C87.1228 55.2341 87.2346 55.1496 87.2799 54.9338L87.3423 54.6335C87.3875 54.4182 87.3116 54.3332 87.1031 54.3332H87.0136C86.9544 54.3332 86.9336 54.35 86.9211 54.4093ZM88.8648 54.8703L89.3068 55.3611C89.5388 55.6147 89.571 55.767 89.5117 56.0505L89.4961 56.1266C89.3843 56.6595 89.1181 56.9556 88.5008 56.9556C87.8841 56.9556 87.7318 56.7062 87.8742 56.0247L87.8919 55.9407C87.9179 55.8179 87.959 55.7838 88.0822 55.7838H88.3714C88.4951 55.7838 88.5222 55.8179 88.4962 55.9402L88.4572 56.1266C88.4218 56.2956 88.4759 56.3634 88.6246 56.3634C88.7738 56.3634 88.855 56.3004 88.8872 56.1481L88.9038 56.0673C88.9288 55.9486 88.9153 55.8898 88.7874 55.7502L88.3714 55.2976C88.1384 55.0483 88.1088 54.9039 88.168 54.6204L88.1873 54.528C88.2991 53.9951 88.5653 53.6985 89.182 53.6985C89.7993 53.6985 89.9516 53.9484 89.8092 54.6293L89.7915 54.7138C89.7655 54.8367 89.7244 54.8703 89.6012 54.8703H89.3115C89.1883 54.8703 89.1612 54.8367 89.1867 54.7138L89.2257 54.528C89.2611 54.3584 89.2075 54.2912 89.0583 54.2912C88.9096 54.2912 88.8279 54.3542 88.7962 54.5064L88.7811 54.5784C88.7551 54.7012 88.7686 54.7605 88.8648 54.8703ZM91.3567 53.8974C91.3827 53.7751 91.4232 53.741 91.547 53.741H91.819C91.9427 53.741 91.9698 53.7751 91.9438 53.8974L91.4986 56.0253C91.3562 56.7062 91.0998 56.9556 90.4826 56.9556C89.8658 56.9556 89.7135 56.7062 89.856 56.0247L90.3011 53.8974C90.3271 53.7751 90.3682 53.741 90.4914 53.741H90.7639C90.8871 53.741 90.9142 53.7751 90.8887 53.8974L90.4222 56.1266C90.3869 56.2956 90.4451 56.3634 90.6068 56.3634C90.7639 56.3634 90.8549 56.2956 90.8902 56.1266L91.3567 53.8974ZM93.1278 55.6189C93.1294 55.653 93.1403 55.6609 93.1616 55.6609C93.1824 55.6609 93.1975 55.653 93.2131 55.6189L93.9484 53.8512C93.9842 53.762 94.0269 53.741 94.1335 53.741H94.5464C94.6696 53.741 94.6966 53.7751 94.6712 53.8974L94.0732 56.7566C94.0472 56.8794 94.0056 56.913 93.8823 56.913H93.6868C93.5636 56.913 93.536 56.8794 93.562 56.7566L93.849 55.3863C93.8568 55.3485 93.8501 55.3396 93.8246 55.3396C93.8074 55.3396 93.7882 55.3485 93.7778 55.3779L93.184 56.7739C93.1413 56.8752 93.0867 56.913 92.9635 56.913H92.848C92.7201 56.913 92.6816 56.8752 92.6816 56.7739L92.6671 55.3774C92.6645 55.348 92.6577 55.3396 92.6364 55.3396C92.6109 55.3396 92.6005 55.3485 92.5927 55.3863L92.3062 56.7566C92.2802 56.8794 92.2396 56.913 92.1159 56.913H91.9204C91.7966 56.913 91.7696 56.8794 91.7956 56.7566L92.3936 53.8974C92.4196 53.7751 92.4606 53.741 92.5839 53.741H92.9375C93.0862 53.741 93.134 53.7751 93.133 53.9232L93.1273 55.6189H93.1278ZM102 37.55C102 38.1301 101.537 38.6 100.967 38.6C100.831 38.5996 100.696 38.5721 100.57 38.5191C100.445 38.4661 100.331 38.3886 100.235 38.2911C100.139 38.1936 100.063 38.078 100.011 37.9508C99.9594 37.8236 99.9331 37.6874 99.9336 37.55C99.9336 36.9699 100.396 36.5 100.967 36.5C101.537 36.5 102 36.9699 102 37.55Z" fill="#1D2633"/>
</g>
<defs>
<clipPath id="clip0_526_1217">
<rect width="52" height="21" fill="white" transform="translate(50 36.5)"/>
</clipPath>
</defs>
</svg>
