<svg width="320" height="74" viewBox="0 0 320 74" fill="none" xmlns="http://www.w3.org/2000/svg">
<path d="M255.958 72.8071V23.398H268.955V32.2935H269.232C270.983 26.0251 275.177 22.6144 280.985 22.6144C282.552 22.6144 283.888 22.8449 284.81 23.1214V34.9667C283.704 34.5058 281.86 34.1832 279.925 34.1832C273.288 34.1832 269.416 38.2392 269.416 45.1989V72.8071H255.958Z" fill="#2A2A2A"/>
<path d="M228.508 32.293C222.608 32.293 218.368 36.7638 217.907 42.94H238.878C238.602 36.6256 234.499 32.293 228.508 32.293ZM239.062 57.689H251.415C249.94 67.368 241.09 73.8668 228.876 73.8668C213.666 73.8668 204.541 64.1417 204.541 48.3326C204.541 32.5696 213.759 22.3375 228.369 22.3375C242.75 22.3375 251.83 32.0626 251.83 47.0881V51.1902H217.769V52.0198C217.769 59.0717 222.239 63.9112 229.107 63.9112C234.039 63.9112 237.818 61.4684 239.062 57.689Z" fill="#2A2A2A"/>
<path d="M174.648 43.2164L191.425 23.3975H206.681L187.83 44.5992L207.603 72.8066H192.117L177.967 52.7111L174.464 56.4905V72.8066H161.005V6.29785H174.464V43.2164H174.648Z" fill="#2A2A2A"/>
<path d="M109.128 72.8069V23.3978H122.125V32.2011H122.402C125.029 26.071 130.237 22.476 137.842 22.476C148.812 22.476 154.988 29.3895 154.988 40.9583V72.8069H141.53V43.7698C141.53 37.3171 138.488 33.6299 132.45 33.6299C126.412 33.6299 122.586 38.0546 122.586 44.4612V72.8069H109.128Z" fill="#2A2A2A"/>
<path d="M89.5131 72.8074V23.3983H102.972V72.8074H89.5131ZM96.2424 17.9596C92.1864 17.9596 89.0522 14.8715 89.0522 10.9999C89.0522 7.0822 92.1864 4.04022 96.2424 4.04022C100.298 4.04022 103.433 7.0822 103.433 10.9999C103.433 14.8715 100.298 17.9596 96.2424 17.9596Z" fill="#2A2A2A"/>
<path d="M37.2207 72.8066V6.29785H50.4487V32.2008H50.7253C53.3524 25.9786 58.745 22.4757 66.2578 22.4757C77.2274 22.4757 83.4957 29.5736 83.4957 41.0041V72.8066H70.0372V43.8617C70.0372 37.5012 66.9031 33.6296 60.773 33.6296C54.4125 33.6296 50.6792 38.1004 50.6792 44.5992V72.8066H37.2207Z" fill="#2A2A2A"/>
<path d="M13.9194 72.8066H0V17.7744L-5.99223e-05 6.29785H33.1853V17.7744H13.9194V72.8066Z" fill="#2A2A2A"/>
<circle cx="308.78" cy="11.2202" r="11.2202" fill="#BCFF1F"/>
</svg>
