<svg width="88" height="20" viewBox="0 0 88 20" fill="none" xmlns="http://www.w3.org/2000/svg">
<path d="M80.439 19.595V5.05004H82.5973V8.56507L82.2443 8.10718C82.4163 7.65826 82.638 7.24525 82.9095 6.86816C83.19 6.49107 83.5022 6.18132 83.8461 5.9389C84.2262 5.63364 84.656 5.4002 85.1357 5.23859C85.6153 5.07698 86.104 4.98271 86.6017 4.95577C87.0994 4.91986 87.5655 4.95128 87.9998 5.05004V7.29912C87.4931 7.16445 86.9365 7.12854 86.3302 7.19138C85.7239 7.25423 85.1628 7.4742 84.647 7.85129C84.1764 8.18349 83.8099 8.58752 83.5475 9.06337C83.2941 9.53923 83.1176 10.0555 83.0181 10.6121C82.9185 11.1598 82.8688 11.721 82.8688 12.2956V19.595H80.439Z" fill="#2A2A2A"/>
<path d="M70.7522 19.9995C69.3133 19.9995 68.0554 19.6852 66.9785 19.0568C65.9107 18.4193 65.0781 17.5349 64.4809 16.4036C63.8836 15.2634 63.585 13.9346 63.585 12.4173C63.585 10.8281 63.8791 9.4544 64.4673 8.29619C65.0555 7.129 65.8745 6.23116 66.9242 5.60268C67.983 4.96522 69.2228 4.64648 70.6436 4.64648C72.1187 4.64648 73.372 4.98317 74.4037 5.65655C75.4444 6.32993 76.2226 7.29061 76.7384 8.5386C77.2633 9.78659 77.4895 11.2725 77.4172 12.9964H74.9738V12.1344C74.9466 10.3477 74.5801 9.01446 73.8743 8.13458C73.1684 7.24572 72.1187 6.80129 70.725 6.80129C69.2319 6.80129 68.0961 7.27714 67.3179 8.22885C66.5396 9.18056 66.1505 10.5453 66.1505 12.323C66.1505 14.0379 66.5396 15.3666 67.3179 16.3094C68.0961 17.2521 69.2047 17.7235 70.6436 17.7235C71.6119 17.7235 72.4535 17.5035 73.1684 17.0636C73.8833 16.6236 74.4444 15.9906 74.8516 15.1646L77.1728 15.9592C76.6027 17.2431 75.743 18.2397 74.5937 18.949C73.4535 19.6493 72.173 19.9995 70.7522 19.9995ZM65.336 12.9964V11.0705H76.1683V12.9964H65.336Z" fill="#2A2A2A"/>
<path d="M50.8115 19.5944L50.8251 0.201172H53.2685V12.0526L59.4176 5.04949H62.5533L56.0783 12.322L63.3134 19.5944H59.9334L53.2685 12.5913V19.5944H50.8115Z" fill="#2A2A2A"/>
<path d="M44.8526 19.5959V12.3099C44.8526 11.6186 44.7892 10.9542 44.6625 10.3167C44.5449 9.67927 44.3322 9.10914 44.0246 8.60635C43.7259 8.09458 43.3187 7.69056 42.8029 7.39427C42.2961 7.09799 41.6536 6.94984 40.8753 6.94984C40.269 6.94984 39.717 7.05309 39.2193 7.2596C38.7306 7.45712 38.3098 7.76238 37.9569 8.17539C37.6039 8.58839 37.3279 9.10914 37.1288 9.73762C36.9388 10.3571 36.8438 11.0889 36.8438 11.9328L35.2556 11.448C35.2556 10.0384 35.509 8.83081 36.0157 7.82523C36.5316 6.81068 37.251 6.03405 38.174 5.49535C39.1061 4.94767 40.2011 4.67383 41.459 4.67383C42.4092 4.67383 43.2191 4.82197 43.8888 5.11826C44.5585 5.41454 45.115 5.80959 45.5584 6.3034C46.0019 6.78823 46.3503 7.33591 46.6037 7.94644C46.8571 8.54799 47.0335 9.16301 47.1331 9.79149C47.2417 10.411 47.296 10.9991 47.296 11.5557V19.5959H44.8526ZM34.4004 19.5959V5.05092H36.5723V8.94304H36.8438V19.5959H34.4004Z" fill="#2A2A2A"/>
<path d="M27.9248 2.47803V0H30.341V2.47803H27.9248ZM27.9248 19.5953V5.05033H30.341V19.5953H27.9248Z" fill="#2A2A2A"/>
<path d="M21.6812 19.5944V12.3085C21.6812 11.6172 21.6178 10.9528 21.4912 10.3153C21.3735 9.67783 21.1608 9.10771 20.8532 8.60492C20.5545 8.09315 20.1473 7.68913 19.6315 7.39284C19.1247 7.09655 18.4822 6.94841 17.7039 6.94841C17.0976 6.94841 16.5456 7.05166 16.0479 7.25816C15.5592 7.45569 15.1384 7.76095 14.7855 8.17396C14.4325 8.58696 14.1565 9.10771 13.9574 9.73619C13.7674 10.3557 13.6724 11.0874 13.6724 11.9314L12.0842 11.4466C12.0842 10.037 12.3376 8.82938 12.8443 7.8238C13.3602 6.80925 14.0796 6.03262 15.0027 5.49391C15.9348 4.94623 17.0297 4.6724 18.2876 4.6724C19.2378 4.6724 20.0478 4.82054 20.7174 5.11682C21.3871 5.41311 21.9436 5.80816 22.3871 6.30197C22.8305 6.7868 23.1789 7.33448 23.4323 7.94501C23.6857 8.54656 23.8621 9.16158 23.9617 9.79006C24.0703 10.4096 24.1246 10.9977 24.1246 11.5543V19.5944H21.6812ZM11.229 19.5944V0.201172H13.4009V10.9079H13.6724V19.5944H11.229Z" fill="#2A2A2A"/>
<path d="M0.000653745 19.5944V2.47719L0 0.201172H9.08184V2.47719H2.41687V19.5944H0.000653745Z" fill="#2A2A2A"/>
</svg>
